<mxfile host="app.diagrams.net" modified="2024-05-06T14:40:35.274Z" agent="Mozilla/5.0 (Windows NT 10.0; Win64; x64) AppleWebKit/537.36 (KHTML, like Gecko) Chrome/124.0.0.0 Safari/537.36" version="24.3.1" etag="Rv0vq55y8Of_VjJY1RQg" type="github">
  <diagram name="Page-1" id="k_aOBrfTD1fjt1JlveB1">
    <mxGraphModel>
      <root>
        <mxCell id="0" />
        <mxCell id="1" parent="0" />
      </root>
    </mxGraphModel>
  </diagram>
</mxfile>
